# xmcd CD database file
#
# Track frame offsets:
#	182
#	20805
#	65600
#	107187
#	148430
#	181020
#	197890
#
# Disc length: 3240 seconds
#
# Revision: 0
# Processed by: cddbd v1.4PL0 Copyright (c) Steve Scherf et al.
# Submitted via: CDex 1.51
#
DISCID=6c0ca607
DTITLE=Robin Shier Quintet - Suburban Groove
DYEAR=1993
DGENRE=Jazz
TTITLE0=Suburban Groove
TTITLE1=Black Pimpernal
TTITLE2=Skylark
TTITLE3=Muse Speak
TTITLE4=Home Sweet Homage
TTITLE5=Hello Good Bio
TTITLE6=Gestatlt Blues
EXTD=YEAR: 1993
EXTT0=
EXTT1=
EXTT2=
EXTT3=
EXTT4=
EXTT5=
EXTT6=
PLAYORDER=
